{"title":"Krull (1983) BDRip 720p x264 AC3-FWOLF","uid":11660473,"size":2543523778,"categoryP":"video","categoryS":"hd___movies","magnet":"?xt=urn:btih:380279d732d6d8eb11babd942c741459af89245d&amp;dn=Krull+%281983%29+BDRip+720p+x264+AC3-FWOLF&amp;tr=udp%3A%2F%2Ftracker.openbittorrent.com%3A80&amp;tr=udp%3A%2F%2Fopen.demonii.com%3A1337&amp;tr=udp%3A%2F%2Ftracker.coppersurfer.tk%3A6969&amp;tr=udp%3A%2F%2Fexodus.desync.com%3A6969","seeders":0,"leechers":1,"uploader":"TvTeam","files":7,"time":1417990840,"description":" &lt;a href=&quot;https://www.torrenting.com&quot; rel=&quot;nofollow&quot; target=&quot;_NEW&quot;&gt;https://www.torrenting.com&lt;/a&gt;\n\nSign up is OPEN - for time being. Come and have fun.Krull (1983) BDRip 720p x264 AC3-FWOLF\n\nimdb.... &lt;a href=&quot;\nhttp://www.imdb.com/title/tt0085811/&quot; rel=&quot;nofollow&quot; target=&quot;_NEW&quot;&gt;\nhttp://www.imdb.com/title/tt0085811/&lt;/a&gt;\n\n\nA prince and a fellowship of companions set out to \nrescue his bride from a fortress of alien invaders \nwho have arrived on their home planet.\n\n\n\nDirector: Peter Yates\n\nWriters:  Stanford Sherman\n\n   \nStars:    Ken Marshall, Lysette Anthony, Freddie Jones\n\n\nFormat                                   : Matroska\nFormat version                           : Version 2\nFile size                                : 2.35 GiB\nDuration                                 : 2h 0mn\nOverall bit rate                         : 2 779 Kbps\nEncoded date                             : UTC 2014-12-05 17:19:33\nWriting library                          : libebml v1.3.0 + libmatroska v1.4.1\n\nVideo\nID                                       : 1\nFormat                                   : AVC\nFormat/Info                              : Advanced Video Codec\nFormat profile                           : &lt;a class=&quot;__cf_email__&quot; href=&quot;/cdn-cgi/l/email-protection&quot; data-cfemail=&quot;f6be9f919eb6bac2d8c7&quot;&gt;[email&amp;#160;protected]&lt;/a&gt;&lt;script cf-hash='f9e31' type=&quot;text/javascript&quot;&gt;\n/* &lt;![CDATA[ */!function(){try{var t=&quot;currentScript&quot;in document?document.currentScript:function(){for(var t=document.getElementsByTagName(&quot;script&quot;),e=t.length;e--;)if(t[e].getAttribute(&quot;cf-hash&quot;))return t[e]}();if(t&amp;&amp;t.previousSibling){var e,r,n,i,c=t.previousSibling,a=c.getAttribute(&quot;data-cfemail&quot;);if(a){for(e=&quot;&quot;,r=parseInt(a.substr(0,2),16),n=2;a.length-n;n+=2)i=parseInt(a.substr(n,2),16)^r,e+=String.fromCharCode(i);e=document.createTextNode(e),c.parentNode.replaceChild(e,c)}}}catch(u){}}();/* ]]&gt; */&lt;/script&gt;\nFormat settings, CABAC                   : Yes\nFormat settings, ReFrames                : 8 frames\nCodec ID                                 : V_MPEG4/ISO/AVC\nDuration                                 : 2h 0mn\nBit rate                                 : 2 330 Kbps\nWidth                                    : 1 280 pixels\nHeight                                   : 536 pixels\nDisplay aspect ratio                     : 2.40:1\nFrame rate mode                          : Constant\nFrame rate                               : 23.976 fps\nColor space                              : YUV\nChroma subsampling                       : 4:2:0\nBit depth                                : 8 bits\nScan type                                : Progressive\nBits/(Pixel*Frame)                       : 0.142\nStream size                              : 1.92 GiB (82%)\n\nLanguage                                 : English\nDefault                                  : Yes\nForced                                   : No\n\nAudio\nID                                       : 2\nFormat                                   : AC-3\nFormat/Info                              : Audio Coding 3\nMode extension                           : CM (complete main)\nFormat settings, Endianness              : Big\nCodec ID                                 : A_AC3\nDuration                                 : 2h 0mn\nBit rate mode                            : Constant\nBit rate                                 : 448 Kbps\nChannel(s)                               : 6 channels\nChannel positions                        : Front: L C R, Side: L R, LFE\nSampling rate                            : 48.0 KHz\nBit depth                                : 16 bits\nCompression mode                         : Lossy\nStream size                              : 387 MiB (16%)\nLanguage                                 : English\nDefault                                  : Yes\nForced                                   : No\n\n\n\n\n\nEncoded....................FWOLF              \n\nSource.....................BDremux 20.31 GB (Thanks!)\n\nSample.....................Yes\n\nSubs.......................(srt)English,Greek\n\n\n\n\n[img]http://s4.postimg.org/54nm5erel/image.png[/img]\n\n\n\n\n[img]http://s30.postimg.org/atetv4frl/image.png[/img]\n\nGreetz To: PsiX | Blacksheep | CFR | tomcat-12...\n.....and all P2P Encoders and Groups","torrent":{"xt":"urn:btih:380279d732d6d8eb11babd942c741459af89245d","amp;dn":"Krull+%281983%29+BDRip+720p+x264+AC3-FWOLF","amp;tr":["udp%3A%2F%2Ftracker.openbittorrent.com%3A80","udp%3A%2F%2Fopen.demonii.com%3A1337","udp%3A%2F%2Ftracker.coppersurfer.tk%3A6969","udp%3A%2F%2Fexodus.desync.com%3A6969"],"infoHash":"380279d732d6d8eb11babd942c741459af89245d","infoHashBuffer":{"type":"Buffer","data":[56,2,121,215,50,214,216,235,17,186,189,148,44,116,20,89,175,137,36,93]},"announce":[],"urlList":[]}}